<?xml version="1.0" encoding="UTF-8" standalone="no"?>
<!-- Generator: Adobe Illustrator 17.1.0, SVG Export Plug-In . SVG Version: 6.00 Build 0)  -->

<svg
   xmlns:dc="http://purl.org/dc/elements/1.1/"
   xmlns:cc="http://creativecommons.org/ns#"
   xmlns:rdf="http://www.w3.org/1999/02/22-rdf-syntax-ns#"
   xmlns:svg="http://www.w3.org/2000/svg"
   xmlns="http://www.w3.org/2000/svg"
   xmlns:sodipodi="http://sodipodi.sourceforge.net/DTD/sodipodi-0.dtd"
   xmlns:inkscape="http://www.inkscape.org/namespaces/inkscape"
   version="1.1"
   id="Capa_1"
   x="0px"
   y="0px"
   viewBox="0 0 490 490"
   style="enable-background:new 0 0 490 490;"
   xml:space="preserve"
   sodipodi:docname="one-book.svg"
   inkscape:version="0.92.4 (5da689c313, 2019-01-14)"><metadata
   id="metadata49"><rdf:RDF><cc:Work
       rdf:about=""><dc:format>image/svg+xml</dc:format><dc:type
         rdf:resource="http://purl.org/dc/dcmitype/StillImage" /><dc:title></dc:title></cc:Work></rdf:RDF></metadata><defs
   id="defs47">
	
</defs><sodipodi:namedview
   pagecolor="#ffffff"
   bordercolor="#666666"
   borderopacity="1"
   objecttolerance="10"
   gridtolerance="10"
   guidetolerance="10"
   inkscape:pageopacity="0"
   inkscape:pageshadow="2"
   inkscape:window-width="1366"
   inkscape:window-height="659"
   id="namedview45"
   showgrid="false"
   inkscape:zoom="2.86"
   inkscape:cx="-14.189817"
   inkscape:cy="83.871797"
   inkscape:window-x="0"
   inkscape:window-y="31"
   inkscape:window-maximized="1"
   inkscape:current-layer="Capa_1"
   showguides="true"
   inkscape:guide-bbox="true"><sodipodi:guide
     position="247.78909,334.20936"
     orientation="1,0"
     id="guide113"
     inkscape:locked="false" /><sodipodi:guide
     position="30.810811,430.81081"
     orientation="0,1"
     inkscape:locked="false"
     id="guide115" /><sodipodi:guide
     position="137.76596,44.148936"
     orientation="0,1"
     id="guide193"
     inkscape:locked="false" /><sodipodi:guide
     position="240.20979,58.391608"
     orientation="0,1"
     id="guide196"
     inkscape:locked="false" /></sodipodi:namedview>
<path
   d="m 167.13244,45.872781 c -23.64001,-0.07688 1.90178,-0.949505 -21.72126,-0.535587 -9.74235,0.323571 -10.09857,0.62992 -22.59054,-0.229194 C 102.25488,45.346514 81.640566,44.621776 61.106381,45.486834 46.771462,47.951352 45.36726,63.35609 46.23,75.078357 V 431.629 c -13.968651,0.34602 -30.874193,-1.27643 -44.7519216,-0.0206 l -0.60323888,14.24267 246.66250048,0 0.0259,-14.24267 c 0,0 0.59381,0.68535 -22.65067,0.30035 -18.13329,-0.30035 -7.89274,-0.65 -32.67545,-0.21292 -6.62612,0.11686 -4.93907,1.47939 -4.29505,-16.84664 0.34634,-9.85534 -0.43908,-21.96973 -0.46351,-31.76192 -0.0678,-27.18623 0.3451,-51.45809 0.3797,-73.82766 -0.30146,-51.63406 -0.85339,-75.88666 -0.0692,-127.52301 V 66.531958 c 2.566,-15.106333 -4.7622,-21.464835 -20.65665,-20.659177 z M 170.817,143.682 H 60.23 v -18.588 h 110.587 z m -110.587,14 h 110.587 v 18.599 H 60.23 Z m 4.625,-98.574 c 23.696702,0.243091 79.49018,-0.485539 103.12658,0.363031 5.32736,4.606368 1.82551,13.029771 2.83542,19.393111 V 111.093 H 60.23 C 60.476066,94.717129 59.739815,78.242565 60.594203,61.927813 61.286041,60.251148 63.035949,59.081856 64.855,59.108 Z M 60.23,190.281 H 170.817 V 431.63 H 60.23 Z"
   id="path10"
   inkscape:connector-curvature="0"
   sodipodi:nodetypes="ccccccccccssssccccccccccccccccccccccccccc" />
<g
   id="g14">
</g>
<g
   id="g16">
</g>
<g
   id="g18">
</g>
<g
   id="g20">
</g>
<g
   id="g22">
</g>
<g
   id="g24">
</g>
<g
   id="g26">
</g>
<g
   id="g28">
</g>
<g
   id="g30">
</g>
<g
   id="g32">
</g>
<g
   id="g34">
</g>
<g
   id="g36">
</g>
<g
   id="g38">
</g>
<g
   id="g40">
</g>
<g
   id="g42">
</g>
</svg>